<svg width="68" height="68" viewBox="0 0 68 68" fill="none" xmlns="http://www.w3.org/2000/svg">
<path d="M18.5824 64.797L64.7967 18.5828L64.7966 12.9999L40 12.9999L12.9999 40.0003L13 64.7967L18.5824 64.797Z" fill="#11BB92"/>
<path d="M21.4975 44.7881C21.6841 44.6524 21.8963 44.5718 22.1338 44.5463C22.3757 44.5166 22.6133 44.5421 22.8466 44.6227C23.0842 44.699 23.2921 44.8263 23.4703 45.0045C23.6951 45.2294 23.8415 45.4903 23.9094 45.7873C23.973 46.08 23.9476 46.3897 23.833 46.7164C23.7185 47.0346 23.5127 47.3422 23.2157 47.6392L21.5611 49.2938L17.1254 44.8581L18.7164 43.2671C19.0176 42.9659 19.3252 42.7601 19.6392 42.6498C19.9489 42.5353 20.2416 42.5098 20.5174 42.5735C20.7932 42.6371 21.0371 42.775 21.2493 42.9871C21.5123 43.2502 21.6587 43.5408 21.6884 43.859C21.7181 44.1687 21.6544 44.4784 21.4975 44.7881ZM19.6201 46.1946L20.5938 45.2209C20.8653 44.9493 21.0117 44.6757 21.0329 44.3999C21.0541 44.1242 20.9523 43.8738 20.7274 43.649C20.5026 43.4241 20.2522 43.3223 19.9765 43.3435C19.7007 43.3647 19.4228 43.5153 19.1428 43.7953L18.1818 44.7563L19.6201 46.1946ZM22.6875 47.2128C22.976 46.9243 23.133 46.6316 23.1584 46.3346C23.1839 46.0376 23.0757 45.7682 22.8339 45.5263C22.5878 45.2803 22.3099 45.1721 22.0002 45.2018C21.6863 45.2272 21.3871 45.3821 21.1029 45.6664L20.0974 46.6719L21.6629 48.2374L22.6875 47.2128ZM26.7686 40.3316C26.8789 40.4419 26.9892 40.5649 27.0995 40.7007L24.3121 43.4881C24.677 43.8105 25.0631 43.9633 25.4704 43.9463C25.8776 43.9208 26.234 43.7554 26.5395 43.4499C26.7898 43.1996 26.9404 42.9344 26.9913 42.6544C27.0423 42.3659 27.0041 42.0901 26.8768 41.8271L27.5005 41.2034C27.7423 41.6319 27.8293 42.0923 27.7614 42.5844C27.6893 43.0723 27.4453 43.5242 27.0295 43.9399C26.6986 44.2709 26.3274 44.4936 25.9158 44.6081C25.5085 44.7185 25.0949 44.7121 24.6749 44.5891C24.2506 44.4618 23.8582 44.2178 23.4975 43.8572C23.1369 43.4966 22.893 43.1084 22.7657 42.6926C22.6384 42.2768 22.632 41.8674 22.7466 41.4643C22.8611 41.0528 23.0881 40.6773 23.4275 40.3379C23.7584 40.007 24.1233 39.7864 24.5221 39.6761C24.9209 39.5658 25.3155 39.57 25.7058 39.6888C26.0961 39.7991 26.4504 40.0134 26.7686 40.3316ZM26.0495 40.8089C25.8289 40.5882 25.5913 40.4482 25.3367 40.3888C25.0779 40.3252 24.8234 40.3379 24.573 40.427C24.3227 40.5076 24.0957 40.6498 23.8921 40.8534C23.5994 41.1462 23.4424 41.4898 23.4212 41.8844C23.4042 42.2747 23.5463 42.6502 23.8475 43.0108L26.0495 40.8089ZM30.7023 40.2672C30.435 40.5345 30.1507 40.7296 29.8495 40.8527C29.544 40.9715 29.2492 41.0118 28.9649 40.9736C28.6764 40.9312 28.4197 40.8102 28.1949 40.6108L28.7931 40.0126C28.984 40.1696 29.2067 40.2311 29.4613 40.1972C29.7201 40.159 29.9683 40.0211 30.2059 39.7835C30.4265 39.5629 30.5517 39.3402 30.5814 39.1153C30.6111 38.8904 30.5517 38.7038 30.4032 38.5553C30.2504 38.4025 30.0701 38.358 29.8622 38.4216C29.6501 38.481 29.3658 38.6168 29.0095 38.8289C28.6828 39.0198 28.4028 39.1641 28.1694 39.2617C27.9361 39.3508 27.6921 39.3868 27.4376 39.3699C27.183 39.3444 26.9433 39.2192 26.7184 38.9944C26.5402 38.8162 26.4299 38.5998 26.3875 38.3453C26.3451 38.0907 26.379 37.8234 26.4893 37.5434C26.5954 37.2591 26.7736 36.9919 27.0239 36.7415C27.41 36.3555 27.8194 36.1412 28.2522 36.0988C28.6849 36.0564 29.0795 36.1964 29.4358 36.5188L28.8567 37.0979C28.6616 36.9282 28.4409 36.8561 28.1949 36.8816C27.953 36.9028 27.7197 37.0258 27.4948 37.2507C27.287 37.4585 27.166 37.6686 27.1321 37.8807C27.0982 38.0928 27.1533 38.271 27.2976 38.4153C27.4121 38.5298 27.5436 38.5892 27.6921 38.5935C27.8406 38.5892 27.9934 38.5553 28.1503 38.4916C28.3073 38.4195 28.5131 38.3113 28.7676 38.1671C29.0858 37.9846 29.3574 37.8489 29.5822 37.7598C29.8028 37.6664 30.0341 37.6304 30.2759 37.6516C30.522 37.6686 30.7532 37.781 30.9696 37.9889C31.1605 38.1798 31.2793 38.4047 31.3259 38.6635C31.3726 38.9223 31.3429 39.1938 31.2368 39.478C31.1308 39.7538 30.9526 40.0169 30.7023 40.2672ZM30.4316 34.403L32.4871 36.4586C32.6568 36.6283 32.8138 36.7132 32.9581 36.7132C33.0981 36.7089 33.2572 36.6177 33.4353 36.4395L33.8617 36.0131L34.3518 36.5031L33.8299 37.025C33.5075 37.3474 33.1914 37.515 32.8817 37.5277C32.572 37.5405 32.2474 37.3771 31.908 37.0377L29.8524 34.9822L29.4006 35.434L28.9233 34.9567L29.3751 34.5049L28.4969 33.6266L29.076 33.0475L29.9543 33.9257L30.8643 33.0157L31.3416 33.493L30.4316 34.403ZM33.6954 28.2882C34.179 27.8045 34.6882 27.4778 35.2227 27.3081C35.7573 27.1299 36.2855 27.1151 36.8074 27.2636C37.3334 27.4078 37.8235 27.7069 38.2774 28.1609C38.7314 28.6148 39.0305 29.1049 39.1747 29.631C39.319 30.1486 39.302 30.6746 39.1238 31.2092C38.9456 31.7353 38.6147 32.2402 38.1311 32.7238L36.7501 34.1048L32.3144 29.6691L33.6954 28.2882ZM37.6538 32.2465C38.2265 31.6738 38.5129 31.0862 38.5129 30.4837C38.5087 29.877 38.2329 29.3 37.6856 28.7527C37.134 28.2012 36.5507 27.9233 35.9355 27.9191C35.3246 27.9106 34.7348 28.1906 34.1663 28.7591L33.3645 29.561L36.8519 33.0484L37.6538 32.2465ZM42.5542 24.546C42.6645 24.6563 42.7748 24.7793 42.8851 24.9151L40.0977 27.7025C40.4626 28.0249 40.8487 28.1777 41.256 28.1607C41.6633 28.1352 42.0196 27.9698 42.3251 27.6643C42.5754 27.414 42.726 27.1488 42.7769 26.8688C42.8279 26.5803 42.7897 26.3045 42.6624 26.0415L43.2861 25.4178C43.5279 25.8463 43.6149 26.3067 43.547 26.7988C43.4749 27.2867 43.2309 27.7385 42.8151 28.1543C42.4842 28.4852 42.113 28.708 41.7014 28.8225C41.2941 28.9328 40.8805 28.9265 40.4605 28.8034C40.0362 28.6762 39.6438 28.4322 39.2831 28.0716C38.9225 27.711 38.6786 27.3228 38.5513 26.907C38.424 26.4912 38.4176 26.0818 38.5322 25.6787C38.6467 25.2672 38.8737 24.8917 39.2131 24.5523C39.5441 24.2214 39.9089 24.0008 40.3077 23.8905C40.7065 23.7802 41.1011 23.7844 41.4914 23.9032C41.8818 24.0135 42.236 24.2278 42.5542 24.546ZM41.8351 25.0233C41.6145 24.8026 41.3769 24.6626 41.1223 24.6032C40.8635 24.5396 40.609 24.5523 40.3586 24.6414C40.1083 24.722 39.8813 24.8642 39.6777 25.0678C39.385 25.3605 39.228 25.7042 39.2068 26.0988C39.1898 26.4891 39.3319 26.8646 39.6332 27.2252L41.8351 25.0233ZM43.2232 24.1188C42.8668 23.7624 42.6271 23.3785 42.504 22.9669C42.3768 22.5512 42.364 22.1439 42.4659 21.7451C42.5719 21.342 42.7798 20.9856 43.0895 20.6759C43.395 20.3705 43.7259 20.171 44.0823 20.0777C44.4387 19.9844 44.7717 19.9822 45.0814 20.0713L44.4451 19.4349L45.0305 18.8495L48.518 22.3369L47.9325 22.9224L47.2834 22.2733C47.3725 22.5915 47.3704 22.933 47.277 23.2979C47.1837 23.6543 46.9864 23.9831 46.6852 24.2843C46.3755 24.594 46.0191 24.7976 45.616 24.8952C45.213 24.9928 44.8014 24.9758 44.3814 24.8443C43.9614 24.7128 43.5753 24.471 43.2232 24.1188ZM46.1824 21.1723C45.9194 20.9093 45.6372 20.7332 45.336 20.6441C45.0348 20.555 44.742 20.5508 44.4578 20.6314C44.1735 20.7035 43.9232 20.8477 43.7068 21.0641C43.4905 21.2805 43.3441 21.5287 43.2677 21.8087C43.1914 22.0887 43.1977 22.3793 43.2868 22.6806C43.3759 22.9818 43.552 23.2639 43.815 23.527C44.0823 23.7943 44.3687 23.9746 44.6742 24.0679C44.9754 24.157 45.2681 24.1655 45.5524 24.0934C45.8324 24.017 46.0806 23.8706 46.297 23.6543C46.5133 23.4379 46.6597 23.1897 46.7361 22.9097C46.8124 22.6212 46.8061 22.3263 46.717 22.0251C46.6236 21.7196 46.4455 21.4354 46.1824 21.1723ZM45.3664 16.0698L50.0758 20.7791L49.4966 21.3583L44.7873 16.6489L45.3664 16.0698Z" fill="#050C26"/>
</svg>
