<svg width="155" height="20" viewBox="0 0 155 20" fill="none" xmlns="http://www.w3.org/2000/svg">
<path d="M4.675 19H0.9V0.862499H4.675V19ZM25.2559 0.862499V19H23.3184C23.0267 19 22.7809 18.9542 22.5809 18.8625C22.3809 18.7625 22.185 18.5958 21.9934 18.3625L12.9559 6.8625C12.9809 7.15417 12.9975 7.44167 13.0059 7.725C13.0225 8.00833 13.0309 8.27083 13.0309 8.5125V19H9.71836V0.862499H11.6934C11.8517 0.862499 11.985 0.870832 12.0934 0.887498C12.21 0.895832 12.3142 0.924999 12.4059 0.975C12.4975 1.01667 12.585 1.075 12.6684 1.15C12.7517 1.225 12.8434 1.325 12.9434 1.45L22.0434 13C22.01 12.6833 21.985 12.3792 21.9684 12.0875C21.9517 11.7875 21.9434 11.5042 21.9434 11.2375V0.862499H25.2559ZM45.8418 0.862499V19H43.9043C43.6126 19 43.3668 18.9542 43.1668 18.8625C42.9668 18.7625 42.771 18.5958 42.5793 18.3625L33.5418 6.8625C33.5668 7.15417 33.5835 7.44167 33.5918 7.725C33.6085 8.00833 33.6168 8.27083 33.6168 8.5125V19H30.3043V0.862499H32.2793C32.4376 0.862499 32.571 0.870832 32.6793 0.887498C32.796 0.895832 32.9001 0.924999 32.9918 0.975C33.0835 1.01667 33.171 1.075 33.2543 1.15C33.3376 1.225 33.4293 1.325 33.5293 1.45L42.6293 13C42.596 12.6833 42.571 12.3792 42.5543 12.0875C42.5376 11.7875 42.5293 11.5042 42.5293 11.2375V0.862499H45.8418ZM68.4152 9.925C68.4152 11.25 68.1902 12.4792 67.7402 13.6125C67.2986 14.7458 66.6694 15.725 65.8527 16.55C65.0444 17.375 64.0694 18.025 62.9277 18.5C61.7861 18.9667 60.5194 19.2 59.1277 19.2C57.7361 19.2 56.4694 18.9667 55.3277 18.5C54.1861 18.025 53.2069 17.375 52.3902 16.55C51.5736 15.725 50.9402 14.7458 50.4902 13.6125C50.0486 12.4792 49.8277 11.25 49.8277 9.925C49.8277 8.6 50.0486 7.375 50.4902 6.25C50.9402 5.11667 51.5736 4.1375 52.3902 3.3125C53.2069 2.4875 54.1861 1.84167 55.3277 1.375C56.4694 0.899999 57.7361 0.662498 59.1277 0.662498C60.5194 0.662498 61.7861 0.899999 62.9277 1.375C64.0694 1.84167 65.0444 2.49167 65.8527 3.325C66.6694 4.15 67.2986 5.12917 67.7402 6.2625C68.1902 7.3875 68.4152 8.60833 68.4152 9.925ZM64.5777 9.925C64.5777 8.975 64.4527 8.125 64.2027 7.375C63.9527 6.61667 63.5902 5.975 63.1152 5.45C62.6486 4.91667 62.0777 4.5125 61.4027 4.2375C60.7361 3.95417 59.9777 3.8125 59.1277 3.8125C58.2777 3.8125 57.5152 3.95417 56.8402 4.2375C56.1652 4.5125 55.5902 4.91667 55.1152 5.45C54.6486 5.975 54.2902 6.61667 54.0402 7.375C53.7902 8.125 53.6652 8.975 53.6652 9.925C53.6652 10.8833 53.7902 11.7417 54.0402 12.5C54.2902 13.25 54.6486 13.8875 55.1152 14.4125C55.5902 14.9375 56.1652 15.3417 56.8402 15.625C57.5152 15.9 58.2777 16.0375 59.1277 16.0375C59.9777 16.0375 60.7361 15.9 61.4027 15.625C62.0777 15.3417 62.6486 14.9375 63.1152 14.4125C63.5902 13.8875 63.9527 13.25 64.2027 12.5C64.4527 11.7417 64.5777 10.8833 64.5777 9.925ZM87.6441 0.862499L80.3441 19H76.9441L69.6441 0.862499H72.6691C72.9941 0.862499 73.2566 0.941666 73.4566 1.1C73.665 1.25 73.8191 1.44583 73.9191 1.6875L77.8441 12.1375C77.9941 12.5292 78.14 12.9583 78.2816 13.425C78.4316 13.8833 78.5691 14.3667 78.6941 14.875C78.8025 14.3667 78.9191 13.8833 79.0441 13.425C79.1775 12.9583 79.3191 12.5292 79.4691 12.1375L83.3691 1.6875C83.4525 1.47917 83.5983 1.29167 83.8066 1.125C84.0233 0.949999 84.29 0.862499 84.6066 0.862499H87.6441ZM98.683 12.1125L96.7205 6.5625C96.6038 6.27083 96.4788 5.92917 96.3455 5.5375C96.2205 5.14583 96.0997 4.72083 95.983 4.2625C95.8663 4.72917 95.7413 5.1625 95.608 5.5625C95.483 5.95417 95.3622 6.29583 95.2455 6.5875L93.2955 12.1125H98.683ZM104.983 19H102.071C101.746 19 101.479 18.925 101.271 18.775C101.071 18.6167 100.921 18.4167 100.821 18.175L99.5955 14.7125H92.3705L91.1455 18.175C91.0622 18.3833 90.9163 18.575 90.708 18.75C90.4997 18.9167 90.2372 19 89.9205 19H86.983L94.0705 0.862499H97.908L104.983 19ZM118.967 3.8875H113.667V19H109.904V3.8875H104.604V0.862499H118.967V3.8875ZM126.242 3.8V8.4625H132.292V11.3H126.242V16.0625H134.017V19H122.467V0.862499H134.017V3.8H126.242ZM154.335 9.925C154.335 11.25 154.11 12.4708 153.66 13.5875C153.219 14.6958 152.59 15.65 151.773 16.45C150.965 17.25 149.99 17.875 148.848 18.325C147.706 18.775 146.44 19 145.048 19H138.073V0.862499H145.048C146.44 0.862499 147.706 1.0875 148.848 1.5375C149.99 1.9875 150.965 2.61667 151.773 3.425C152.59 4.225 153.219 5.17917 153.66 6.2875C154.11 7.39583 154.335 8.60833 154.335 9.925ZM150.485 9.925C150.485 8.975 150.36 8.12083 150.11 7.3625C149.86 6.60417 149.502 5.9625 149.035 5.4375C148.569 4.9125 147.998 4.50833 147.323 4.225C146.656 3.94167 145.898 3.8 145.048 3.8H141.848V16.0625H145.048C145.898 16.0625 146.656 15.925 147.323 15.65C147.998 15.3667 148.569 14.9625 149.035 14.4375C149.502 13.9042 149.86 13.2583 150.11 12.5C150.36 11.7417 150.485 10.8833 150.485 9.925Z" fill="white"/>
</svg>
